<?xml version="1.0" encoding="UTF-8" standalone="no"?>
<!DOCTYPE svg PUBLIC "-//W3C//DTD SVG 1.1//EN" "http://www.w3.org/Graphics/SVG/1.1/DTD/svg11.dtd">
<svg width="100%" height="100%" viewBox="0 0 50 29" version="1.1" xmlns="http://www.w3.org/2000/svg" xmlns:xlink="http://www.w3.org/1999/xlink" xml:space="preserve" xmlns:serif="http://www.serif.com/" style="fill-rule:evenodd;clip-rule:evenodd;stroke-linecap:round;stroke-linejoin:round;stroke-miterlimit:1.5;">
    <g transform="matrix(1,0,0,1,25.3205,4.5)">
        <path d="M10,0C15.519,0 20,4.481 20,10C20,15.519 15.519,20 10,20C4.481,20 0,15.519 0,10C0,4.481 4.481,0 10,0ZM10,2C14.415,2 18,5.585 18,10C18,14.415 14.415,18 10,18C5.585,18 2,14.415 2,10C2,5.585 5.585,2 10,2Z"/>
    </g>
    <g transform="matrix(1.93855,0,0,1.01824,-47.1484,-5.86477)">
        <path d="M38.332,23.481C39.489,22.604 40,21.614 40,20C40,15.67 33.368,14.269 33.368,14.269C33.368,14.269 26.735,12.195 26.735,5.784" style="fill:none;stroke:black;stroke-width:1.29px;"/>
    </g>
    <g transform="matrix(1.93855,0,0,1.01824,-47.1484,-5.86477)">
        <path d="M26.735,34.216C26.735,30.099 29.471,27.771 31.429,26.64" style="fill:none;stroke:black;stroke-width:1.29px;"/>
    </g>
</svg>
