<svg width="256" height="256" viewBox="0 0 256 256" fill="none" xmlns="http://www.w3.org/2000/svg">
<path d="M64.6375 79.95C65.1375 80.15 65.6375 80.35 66.1375 80.55C66.7375 80.75 67.2875 81 67.7875 81.3C68.3875 81.5 68.9875 81.75 69.5875 82.05C70.2875 82.25 70.9375 82.45 71.5375 82.65C74.4375 83.85 77.7375 86.35 81.4375 90.15C84.0375 92.75 85.8375 94.75 86.8375 96.15C87.2375 96.85 87.6875 97.8 88.1875 99C88.7875 100.1 89.3875 101.45 89.9875 103.05C91.8875 107.95 92.8375 112.1 92.8375 115.5C92.9375 118.8 92.1375 122.15 90.4375 125.55C89.3375 127.45 88.1875 129.1 86.9875 130.5C86.5875 130.9 86.1375 131.35 85.6375 131.85C85.2375 132.25 84.7875 132.65 84.2875 133.05C83.7875 133.35 83.2375 133.7 82.6375 134.1C81.7375 134.6 80.7375 135.15 79.6375 135.75C78.5375 136.35 77.2875 136.9 75.8875 137.4C68.3875 140.7 61.8375 141.35 56.2375 139.35C55.5375 139.15 54.8375 138.95 54.1375 138.75C53.5375 138.45 52.9375 138.15 52.3375 137.85C51.8375 137.55 51.3875 137.25 50.9875 136.95C49.6875 136.15 48.4875 135.15 47.3875 133.95C46.3875 132.75 45.3875 131.05 44.3875 128.85C43.9875 128.05 43.6375 127.3 43.3375 126.6C43.0375 125.8 42.7875 125.15 42.5875 124.65C42.3875 124.05 42.2375 123.55 42.1375 123.15C42.0375 122.45 41.9375 121.6 41.8375 120.6C41.7375 119.6 41.6875 118.4 41.6875 117C41.6875 112.7 41.9375 109.5 42.4375 107.4C43.4375 103.9 44.7375 100.5 46.3375 97.2C48.0375 93.9 49.7875 91.25 51.5875 89.25C53.2875 87.35 54.7375 86.4 55.9375 86.4C56.3375 86.4 56.6375 86.45 56.8375 86.55C57.1375 86.55 57.3875 86.65 57.5875 86.85C58.4875 87.55 57.4875 89.6 54.5875 93C52.8875 95 51.4375 97.2 50.2375 99.6C49.1375 101.9 48.2875 104.45 47.6875 107.25C47.1875 110.05 46.9375 113.05 46.9375 116.25C46.9375 119.75 47.0375 122.1 47.2375 123.3C47.4375 124.5 48.0375 125.95 49.0375 127.65C52.4375 133.05 57.4375 135.8 64.0375 135.9C64.3375 135.9 64.6375 135.9 64.9375 135.9C65.2375 135.9 65.5375 135.9 65.8375 135.9C66.2375 135.8 66.5875 135.75 66.8875 135.75C67.1875 135.65 67.4875 135.55 67.7875 135.45C68.1875 135.35 68.5375 135.25 68.8375 135.15C69.2375 135.05 69.6375 134.95 70.0375 134.85C70.4375 134.65 70.7875 134.5 71.0875 134.4C71.4875 134.3 71.8875 134.15 72.2875 133.95C72.6875 133.75 73.0875 133.55 73.4875 133.35C77.6875 131.45 80.6375 129.85 82.3375 128.55C83.1375 127.95 83.9375 127.15 84.7375 126.15C85.5375 125.15 86.2375 123.95 86.8375 122.55C87.3375 121.65 87.6875 120.8 87.8875 120C88.1875 119.1 88.3875 118.3 88.4875 117.6C88.6875 116.8 88.7875 116.05 88.7875 115.35C88.7875 113.85 88.3875 111.9 87.5875 109.5C86.8875 107 85.7875 104.4 84.2875 101.7C82.8875 98.9 81.2875 96.3 79.4875 93.9C77.9875 91.8 74.9875 89.5 70.4875 87C66.0875 84.6 62.1875 83.2 58.7875 82.8C56.4875 82.5 55.3875 81.9 55.4875 81C55.5875 80.5 56.0375 80.1 56.8375 79.8C59.2375 78.6 61.8375 78.65 64.6375 79.95ZM138.898 101.25C141.598 100.15 143.698 100 145.198 100.8C146.098 101.2 146.548 102 146.548 103.2C146.548 104.4 146.148 105.2 145.348 105.6C144.648 105.8 138.348 106.1 126.448 106.5C114.848 106.8 107.348 107.1 103.948 107.4C102.248 107.6 100.898 107.65 99.898 107.55C98.998 107.35 98.348 107.1 97.948 106.8C97.648 106.4 97.498 105.75 97.498 104.85C97.498 103.45 98.398 102.65 100.198 102.45C101.998 102.15 107.898 102 117.898 102C130.298 102 137.298 101.75 138.898 101.25ZM208.561 84.6C208.161 83.8 207.861 83.1 207.661 82.5C207.561 81.9 207.511 81.35 207.511 80.85C207.511 79.95 207.961 79.5 208.861 79.5C209.961 79.5 210.911 80 211.711 81H211.861C212.561 81.8 213.161 82.95 213.661 84.45C214.261 85.85 214.711 87.65 215.011 89.85C215.211 91.35 215.311 92.8 215.311 94.2C215.411 95.5 215.361 96.8 215.161 98.1C215.061 99.4 214.911 100.65 214.711 101.85C213.311 108.45 211.411 114.25 209.011 119.25C206.711 124.15 203.911 128.25 200.611 131.55C197.411 134.75 193.761 137.1 189.661 138.6C185.861 140.1 182.711 140.7 180.211 140.4C177.811 140.2 175.761 139.8 174.061 139.2C172.461 138.6 170.911 137.8 169.411 136.8C167.811 135.8 166.111 134.4 164.311 132.6C161.911 130.4 159.911 128.15 158.311 125.85C156.711 123.55 155.511 121.2 154.711 118.8C153.011 113.9 151.911 105.85 151.411 94.65C151.111 91.35 151.061 89.1 151.261 87.9C151.461 86.7 151.861 85.45 152.461 84.15C153.361 82.45 153.911 81.5 154.111 81.3C154.311 81.2 154.761 81.25 155.461 81.45C155.561 81.55 155.661 81.75 155.761 82.05C155.961 82.35 156.061 82.8 156.061 83.4C156.061 84 156.061 85 156.061 86.4C156.061 87.7 156.011 89.4 155.911 91.5C155.711 98.2 156.111 104.2 157.111 109.5C158.111 114.5 159.311 118.4 160.711 121.2C162.211 124 164.311 126.55 167.011 128.85C169.011 130.65 170.661 131.95 171.961 132.75C173.361 133.55 174.761 134.15 176.161 134.55C177.561 134.85 179.361 135.05 181.561 135.15C185.061 135.15 187.961 134.6 190.261 133.5C192.561 132.3 195.311 130 198.511 126.6C206.311 118.3 210.161 107.45 210.061 94.05C209.861 89.25 209.361 86.1 208.561 84.6Z" fill="black"/>
<path d="M153.849 144.6C153.449 143.8 153.149 143.1 152.949 142.5C152.849 141.9 152.799 141.35 152.799 140.85C152.799 139.95 153.249 139.5 154.149 139.5C155.249 139.5 156.199 140 156.999 141H157.149C157.849 141.8 158.449 142.95 158.949 144.45C159.549 145.85 159.999 147.65 160.299 149.85C160.499 151.35 160.599 152.8 160.599 154.2C160.699 155.5 160.649 156.8 160.449 158.1C160.349 159.4 160.199 160.65 159.999 161.85C158.599 168.45 156.699 174.25 154.299 179.25C151.999 184.15 149.199 188.25 145.899 191.55C142.699 194.75 139.049 197.1 134.949 198.6C131.149 200.1 127.999 200.7 125.499 200.4C123.099 200.2 121.049 199.8 119.349 199.2C117.749 198.6 116.199 197.8 114.699 196.8C113.099 195.8 111.399 194.4 109.599 192.6C107.199 190.4 105.199 188.15 103.599 185.85C101.999 183.55 100.799 181.2 99.9994 178.8C98.2994 173.9 97.1994 165.85 96.6994 154.65C96.3994 151.35 96.3494 149.1 96.5494 147.9C96.7494 146.7 97.1494 145.45 97.7494 144.15C98.6494 142.45 99.1994 141.5 99.3994 141.3C99.5994 141.2 100.049 141.25 100.749 141.45C100.849 141.55 100.949 141.75 101.049 142.05C101.249 142.35 101.349 142.8 101.349 143.4C101.349 144 101.349 145 101.349 146.4C101.349 147.7 101.299 149.4 101.199 151.5C100.999 158.2 101.399 164.2 102.399 169.5C103.399 174.5 104.599 178.4 105.999 181.2C107.499 184 109.599 186.55 112.299 188.85C114.299 190.65 115.949 191.95 117.249 192.75C118.649 193.55 120.049 194.15 121.449 194.55C122.849 194.85 124.649 195.05 126.849 195.15C130.349 195.15 133.249 194.6 135.549 193.5C137.849 192.3 140.599 190 143.799 186.6C151.599 178.3 155.449 167.45 155.349 154.05C155.149 149.25 154.649 146.1 153.849 144.6Z" fill="black"/>
</svg>
